<svg xmlns="http://www.w3.org/2000/svg" viewBox="0 0 256 256"><defs><style>.cls-1{fill:#1d384d;}</style></defs><title>mobile banking</title><g id="icons_without_caption" data-name="icons without caption"><g id="MOBILE_BANKING" data-name="MOBILE BANKING"><path class="cls-1" d="M182,219.47H107v-4H182a10.73,10.73,0,0,0,10.72-10.72V51.25A10.73,10.73,0,0,0,182,40.53H102.82A10.73,10.73,0,0,0,92.1,51.25v126h-4v-126a14.74,14.74,0,0,1,14.72-14.72H182a14.74,14.74,0,0,1,14.72,14.72v153.5A14.74,14.74,0,0,1,182,219.47Z"/><path class="cls-1" d="M143.2,120.24c-4.14-1.35-7.15-2.49-7.15-5.59,0-2.91,2.43-4.53,5.89-4.53A15.4,15.4,0,0,1,150.3,113l2.49-3.08a20.37,20.37,0,0,0-8.45-3.61V99.87H141v6.28c-6.06.29-9.42,3.94-9.42,8.76,0,5.92,4.94,7.61,10.36,9.35,4.58,1.43,7.44,2.62,7.44,6.18,0,3.13-2.71,4.94-6.37,4.94a14.07,14.07,0,0,1-9.57-4.12l-2.59,3.11A17.3,17.3,0,0,0,141,139.23v6.06h3.32v-6c6-.48,9.59-4,9.59-9.1h0C153.93,123.8,149.3,122.18,143.2,120.24Z"/><path class="cls-1" d="M59.31,175.86v43.61H109V175.86ZM105,215.47H63.31V179.86H105Z"/><rect class="cls-1" x="134.59" y="47.8" width="15.6" height="4"/><path class="cls-1" d="M92.1,151.88a16.61,16.61,0,0,0-4-1.31,17.29,17.29,0,0,0-20.6,17v11.94h34.58V167.54A17.3,17.3,0,0,0,92.1,151.88ZM71.5,167.54a13.29,13.29,0,0,1,26.58,0v7.94H71.5Z"/><path class="cls-1" d="M148.79,193.66H136a7.75,7.75,0,0,0,0,15.5h12.78a7.75,7.75,0,0,0,0-15.5Zm0,11.5H136a3.75,3.75,0,0,1,0-7.5h12.78a3.75,3.75,0,0,1,0,7.5Z"/><polygon class="cls-1" points="80.5 206.98 73.01 199.04 75.92 196.29 80.63 201.28 92.49 189.77 95.27 192.64 80.5 206.98"/><path class="cls-1" d="M104.23,58.56v121.3H105v6.74h75.53v-128Zm72.34,124H108.23v-120h68.34Z"/></g></g></svg>