<svg xmlns="http://www.w3.org/2000/svg" viewBox="0 0 256 256"><defs><style>.cls-1{fill:#1d384d;}</style></defs><title>cryptocurrency</title><g id="icons_without_caption" data-name="icons without caption"><g id="CRYPTOCURRENCY"><path class="cls-1" d="M128,202.25A74.25,74.25,0,1,1,202.25,128,74.34,74.34,0,0,1,128,202.25Zm0-144.5A70.25,70.25,0,1,0,198.25,128,70.33,70.33,0,0,0,128,57.75Z"/><path class="cls-1" d="M127.42,172.94v-12.1h-2.3v12.1h-12v-12.1H90.48v-9.78h2a7.49,7.49,0,0,0,7.48-7.48v-34.2a7.49,7.49,0,0,0-7.48-7.48h-2V92.13H113.1V80h12v12.1h2.3V80h12v12.1h6.07v.11a17.37,17.37,0,0,1,15.35,17.23v1.12a17.21,17.21,0,0,1-3,9.78,20.65,20.65,0,0,1,11.36,18.42v1.41a20.67,20.67,0,0,1-20.65,20.64h-9.09v12.1Zm-32.94-16.1H117.1v12.1h4v-12.1h10.3v12.1h4v-12.1h13.09a16.66,16.66,0,0,0,16.65-16.64v-1.41a16.66,16.66,0,0,0-11.24-15.72L151,122l2.15-2.25a13.27,13.27,0,0,0,3.71-9.21v-1.12a13.36,13.36,0,0,0-13.35-13.35h-8.07V84h-4v12.1h-10.3V84h-4v12.1H94.48v2a11.5,11.5,0,0,1,9.48,11.3v34.2a11.5,11.5,0,0,1-9.48,11.3Zm43.23-1.78H112.43V123.93h31.15a14.87,14.87,0,0,1,14.86,14.86v1.41a14.87,14.87,0,0,1-14.86,14.86Zm-21.28-4h27.15a10.87,10.87,0,0,0,10.86-10.86v-1.41a10.87,10.87,0,0,0-10.86-10.86H116.43Zm13.17-28.92H112.43V97.91h27.81v.18a11.58,11.58,0,0,1,9.56,11.38v1.12a11.57,11.57,0,0,1-11.56,11.56Zm-13.17-4h21.81a7.57,7.57,0,0,0,7.56-7.56v-1.12a7.57,7.57,0,0,0-7.56-7.56H116.43Z"/></g></g></svg>