<svg id="ART" xmlns="http://www.w3.org/2000/svg" xmlns:xlink="http://www.w3.org/1999/xlink" viewBox="0 0 48 48"><defs><style>.cls-1{fill:url(#linear-gradient);}.cls-2{fill:url(#linear-gradient-2);}.cls-3{fill:url(#linear-gradient-3);}.cls-4{fill:url(#linear-gradient-4);}.cls-5{fill:url(#linear-gradient-5);}.cls-6{fill:url(#linear-gradient-6);}</style><linearGradient id="linear-gradient" x1="24" y1="46.63" x2="24" y2="16.1" gradientUnits="userSpaceOnUse"><stop offset="0" stop-color="#273a9b"/><stop offset="0.56" stop-color="#202f65"/><stop offset="1" stop-color="#021e2f"/></linearGradient><linearGradient id="linear-gradient-2" x1="9.91" y1="51.33" x2="9.91" y2="20.62" gradientUnits="userSpaceOnUse"><stop offset="0" stop-color="#fff"/><stop offset="0.52" stop-color="#cce2e6"/><stop offset="1" stop-color="#8fa1bb"/></linearGradient><linearGradient id="linear-gradient-3" x1="19.3" y1="51.5" x2="19.3" y2="8.29" gradientUnits="userSpaceOnUse"><stop offset="0" stop-color="#f3c57a"/><stop offset="0.49" stop-color="#f39369"/><stop offset="1" stop-color="#e94867"/></linearGradient><linearGradient id="linear-gradient-4" x1="28.7" y1="70.33" x2="28.7" y2="6.05" gradientUnits="userSpaceOnUse"><stop offset="0" stop-color="#27e9de"/><stop offset="0.52" stop-color="#03a4ec"/><stop offset="1" stop-color="#2547a8"/></linearGradient><linearGradient id="linear-gradient-5" x1="38.09" y1="63.13" x2="38.09" y2="-333.67" xlink:href="#linear-gradient"/><linearGradient id="linear-gradient-6" x1="-24.75" y1="51.75" x2="27.19" y2="-0.19" xlink:href="#linear-gradient-4"/></defs><title>growth, arrow, graph, chart, bar</title><path class="cls-1" d="M43.5,45H4.5A1.5,1.5,0,0,1,3,43.5H3A1.5,1.5,0,0,1,4.5,42h39A1.5,1.5,0,0,1,45,43.5h0A1.5,1.5,0,0,1,43.5,45Z"/><path class="cls-2" d="M7.86,30H12a1.86,1.86,0,0,1,1.86,1.86V42a0,0,0,0,1,0,0H6a0,0,0,0,1,0,0V31.86A1.86,1.86,0,0,1,7.86,30Z"/><path class="cls-3" d="M17.25,21h4.12a1.86,1.86,0,0,1,1.86,1.86V42a0,0,0,0,1,0,0H15.39a0,0,0,0,1,0,0V22.86A1.86,1.86,0,0,1,17.25,21Z"/><path class="cls-4" d="M26.64,12h4.12a1.86,1.86,0,0,1,1.86,1.86V42a0,0,0,0,1,0,0H24.78a0,0,0,0,1,0,0V13.86A1.86,1.86,0,0,1,26.64,12Z"/><path class="cls-5" d="M36,3h4.12A1.86,1.86,0,0,1,42,4.86V42a0,0,0,0,1,0,0H34.17a0,0,0,0,1,0,0V4.86A1.86,1.86,0,0,1,36,3Z"/><path class="cls-6" d="M23.89,4v0a1.5,1.5,0,0,0-.82-.82h0A1.49,1.49,0,0,0,22.5,3h-6a1.5,1.5,0,0,0,0,3h2.38L3.44,21.44a1.5,1.5,0,1,0,2.12,2.12L21,8.12V10.5a1.5,1.5,0,0,0,3,0v-6A1.49,1.49,0,0,0,23.89,4Z"/></svg>