<svg xmlns="http://www.w3.org/2000/svg" viewBox="0 0 256 256"><defs><style>.cls-1{fill:#1d384d;}</style></defs><title>investment</title><g id="icons_without_caption" data-name="icons without caption"><g id="INVESTMENT"><path class="cls-1" d="M92.54,203.08a81.32,81.32,0,0,1-10.48-.8c-15.08-2-27.64-10.73-28.17-11.11A68.67,68.67,0,0,1,128.2,75.72l2,1.23-50,57.45,50.61,57.09-2,1.25A68.51,68.51,0,0,1,92.54,203.08Zm0-133.33A64.67,64.67,0,0,0,56.18,187.89c.15.1,12.34,8.6,26.4,10.42a77.66,77.66,0,0,0,10,.76,64.54,64.54,0,0,0,32.09-8.51L74.86,134.42l49.2-56.49A64.58,64.58,0,0,0,92.54,69.75Z"/><path class="cls-1" d="M178.18,75.53c0,5.18-3.65,8.83-9.82,9.33V91H165V84.8a17.71,17.71,0,0,1-10.39-5l2.65-3.18a14.43,14.43,0,0,0,9.8,4.22c3.75,0,6.52-1.86,6.52-5.06,0-3.65-2.93-4.86-7.61-6.33-5.56-1.79-10.62-3.52-10.62-9.58,0-4.94,3.45-8.68,9.65-9V44.49h3.4v6.65a20.78,20.78,0,0,1,8.66,3.7L174.46,58a15.78,15.78,0,0,0-8.56-3c-3.55,0-6,1.66-6,4.64,0,3.18,3.08,4.34,7.32,5.73,6.25,2,11,3.65,11,10.17Z"/><polygon class="cls-1" points="198.75 94.91 198.75 98.91 213.5 98.91 176.65 145.16 106.73 145.16 73.86 187.01 77 189.48 108.68 149.16 178.58 149.16 217.24 100.64 217.24 116.95 221.24 116.95 221.24 94.91 198.75 94.91"/><path class="cls-1" d="M144.76,179,105,134.35l39.23-45,1.51,1.71c.67.76,16.51,19,15.38,45.56,0,.56-.6,13.87-4.74,22.85a60.6,60.6,0,0,1-10.18,17.71Zm-34.39-44.69,34.22,38.48a56.05,56.05,0,0,0,8.06-14.67l.09-.24c3.84-8.24,4.42-21.31,4.42-21.44.86-20.31-9.17-35.83-13-40.94Z"/><path class="cls-1" d="M217.26,211.51H192.14v-35H177.27l27.42-25.56,27.42,25.56H217.26Zm-21.11-4h17.11v-35H222L204.7,156.39l-17.27,16.09h8.71Z"/></g></g></svg>