<svg xmlns="http://www.w3.org/2000/svg" viewBox="0 0 256 256"><defs><style>.cls-1{fill:#1d384d;}</style></defs><title>safe box</title><g id="icons_without_caption" data-name="icons without caption"><g id="SAFE_BOX" data-name="SAFE BOX"><path class="cls-1" d="M175.07,203.56H67.15a23.5,23.5,0,0,1-23.48-23.48V75.92A23.5,23.5,0,0,1,67.15,52.44H175.07a23.5,23.5,0,0,1,23.48,23.48V180.08A23.5,23.5,0,0,1,175.07,203.56ZM67.15,56.44A19.5,19.5,0,0,0,47.67,75.92V180.08a19.5,19.5,0,0,0,19.48,19.48H175.07a19.5,19.5,0,0,0,19.48-19.48V75.92a19.5,19.5,0,0,0-19.48-19.48Z"/><polygon class="cls-1" points="172.06 180.1 68.6 180.1 68.6 77.04 172.06 77.04 172.06 97.64 168.06 97.64 168.06 81.04 72.6 81.04 72.6 176.1 168.06 176.1 168.06 158.86 172.06 158.86 172.06 180.1"/><path class="cls-1" d="M178,160.86H162.14v-28H178Zm-11.83-4H174v-20h-7.83Z"/><path class="cls-1" d="M178,123.65H162.14v-28H178Zm-11.83-4H174v-20h-7.83Z"/><path class="cls-1" d="M119.46,153.06a23.92,23.92,0,1,1,23.92-23.92A23.95,23.95,0,0,1,119.46,153.06Zm0-43.84a19.92,19.92,0,1,0,19.92,19.92A19.94,19.94,0,0,0,119.46,109.22Z"/><path class="cls-1" d="M119.46,142.13a13,13,0,1,1,13-13A13,13,0,0,1,119.46,142.13Zm0-22a9,9,0,1,0,9,9A9,9,0,0,0,119.46,120.15Z"/><rect class="cls-1" x="117.46" y="140.13" width="4" height="10.93"/><rect class="cls-1" x="117.46" y="107.22" width="4" height="10.93"/><rect class="cls-1" x="130.45" y="127.14" width="10.93" height="4"/><rect class="cls-1" x="97.54" y="127.14" width="10.93" height="4"/><rect class="cls-1" x="168.06" y="121.65" width="4" height="13.21"/></g></g></svg>