<svg xmlns="http://www.w3.org/2000/svg" viewBox="0 0 256 256"><defs><style>.cls-1{fill:#1d384d;}</style></defs><title>sharing economy</title><g id="icons_without_caption" data-name="icons without caption"><g id="SHARING_ECONOMY" data-name="SHARING ECONOMY"><path class="cls-1" d="M127.94,35.54A13.09,13.09,0,1,0,141,48.62,13.1,13.1,0,0,0,127.94,35.54Zm0,22.18A9.09,9.09,0,1,1,137,48.62,9.1,9.1,0,0,1,127.94,57.71Z"/><path class="cls-1" d="M151.39,68.32l0-.06,0,0-.56-.56-.16-.16-.22-.22-.16-.16-.34-.34h0a3,3,0,0,0-.46-.35,16.11,16.11,0,0,0-10.09-3.58H116.76a15.85,15.85,0,0,0-15.11,16.17V99.69h53.64V78.77A16.05,16.05,0,0,0,151.39,68.32Zm-.11,27.37h-7.13V84h-4V95.69H116.78V84h-4V95.69h-7.14V79.06A11.85,11.85,0,0,1,117,66.89c.46,0,.92,0,1.39,0h2.36l4.62,5.42h4.81l5-5.41h4.25a12.06,12.06,0,0,1,8.43,3.46l.07.07a12,12,0,0,1,3.41,8.35Zm-21.6-28.81-1.3,1.41h-1.2L126,66.88Z"/><path class="cls-1" d="M131,68.29h-6.57l-2.58,22.46,5.87,4.73,5.87-4.73Zm-3.29,22L126.12,89l1.64-14.28L129.4,89Z"/><path class="cls-1" d="M70,134.72A13.09,13.09,0,1,0,83.11,147.8,13.1,13.1,0,0,0,70,134.72Zm0,22.18a9.09,9.09,0,1,1,9.09-9.09A9.1,9.1,0,0,1,70,156.89Z"/><path class="cls-1" d="M93.42,167.45l0,0-.7-.7,0,0h0l-.38-.38-.09-.09L92,166h0a2.8,2.8,0,0,0-.45-.34,16.1,16.1,0,0,0-10.1-3.59H58.84a15.85,15.85,0,0,0-15.11,16.17v20.63H97.36V177.95A16,16,0,0,0,93.42,167.45Zm-.06,27.42H86.23V183.2h-4v11.67H58.86V183.2h-4v11.67H47.72V178.24A11.86,11.86,0,0,1,59,166.07c.46,0,.92,0,1.39,0h2.36l4.62,5.42h4.81l5-5.42h4.25a12,12,0,0,1,8.4,3.42l.1.1a12,12,0,0,1,3.42,8.37Zm-21.6-28.81-1.3,1.41h-1.2l-1.2-1.41Z"/><path class="cls-1" d="M69.84,194.66,64,189.92l2.58-22.46h6.57l2.58,22.46ZM68.2,188.2l1.64,1.32,1.64-1.33-1.64-14.28Z"/><path class="cls-1" d="M184.94,134.72A13.09,13.09,0,1,0,198,147.8,13.1,13.1,0,0,0,184.94,134.72Zm0,22.18A9.09,9.09,0,1,1,194,147.8,9.1,9.1,0,0,1,184.94,156.89Z"/><path class="cls-1" d="M208.39,167.51l-.05-.06,0,0-.56-.56-.16-.16h0l-.22-.22-.16-.16-.34-.34h0a3,3,0,0,0-.46-.35,16.11,16.11,0,0,0-10.09-3.58H173.75a15.85,15.85,0,0,0-15.12,16.17v20.63h53.64V177.95A16.05,16.05,0,0,0,208.39,167.51Zm-.11,27.36h-7.13V183.2h-4v11.67H173.78V183.2h-4v11.67h-7.14V178.24A11.86,11.86,0,0,1,174,166.07c.46,0,.92,0,1.39,0h2.36l4.62,5.42h4.81l5-5.42h4.25a12.07,12.07,0,0,1,8.43,3.46l.07.07a12,12,0,0,1,3.41,8.36Zm-21.6-28.81-1.3,1.41h-1.2l-1.2-1.41Z"/><path class="cls-1" d="M184.75,194.66l-5.87-4.74,2.58-22.46H188l2.58,22.46Zm-1.64-6.47,1.64,1.32,1.64-1.33-1.64-14.28Z"/><path class="cls-1" d="M127.54,114.1a28.36,28.36,0,1,0,28.36,28.36A28.39,28.39,0,0,0,127.54,114.1Zm0,52.72a24.36,24.36,0,1,1,24.36-24.36A24.39,24.39,0,0,1,127.54,166.82Z"/><path class="cls-1" d="M128.1,140.58c-3.32-1.09-5.73-2-5.73-4.49,0-2.33,1.94-3.64,4.72-3.64a12.36,12.36,0,0,1,6.71,2.35l2-2.47a16.29,16.29,0,0,0-6.78-2.9v-5.21h-2.66v5c-4.86.23-7.56,3.17-7.56,7,0,4.74,4,6.1,8.32,7.5,3.67,1.15,6,2.1,6,5,0,2.51-2.18,4-5.11,4a11.31,11.31,0,0,1-7.68-3.31l-2.08,2.49a13.88,13.88,0,0,0,8.15,3.91v4.86H129v-4.82c4.84-.39,7.7-3.25,7.7-7.31h0C136.71,143.44,133,142.14,128.1,140.58Z"/><path class="cls-1" d="M74.42,84.12l-.7,3.94,8.7,1.54a73.34,73.34,0,0,0-22.22,34L64,124.76A69.32,69.32,0,0,1,84.27,93.29l-1.44,8.15,3.94.7,2.72-15.35Z"/><path class="cls-1" d="M195.7,112.42,191.14,119c-.49-1.84-1.05-3.67-1.68-5.45a73.11,73.11,0,0,0-19.66-29.58l-2.69,3a69.09,69.09,0,0,1,18.58,28c.61,1.72,1.15,3.48,1.62,5.25l-7.54-5.18-2.27,3.3,12.89,8.85L199,114.71Z"/><path class="cls-1" d="M148.35,207a69.08,69.08,0,0,1-33.52,1.94c-1.79-.34-3.58-.76-5.35-1.25l8.28-3.9-1.7-3.62-14.14,6.66,6.35,13.67,3.63-1.68-3.37-7.25c1.84.5,3.69.94,5.56,1.3a73.11,73.11,0,0,0,35.46-2.06Z"/></g></g></svg>