<svg xmlns="http://www.w3.org/2000/svg" version="1.1" xmlns:xlink="http://www.w3.org/1999/xlink" xmlns:svgjs="http://svgjs.dev/svgjs" width="1440" height="560" preserveAspectRatio="none" viewBox="0 0 1440 560">
    <g mask="url(&quot;#SvgjsMask1318&quot;)" fill="none">
        <g mask="url(&quot;#SvgjsMask1319&quot;)">
            <path d="M687.5 412.5L712.5 387.5L712.5 362.5L712.5 337.5L712.5 312.5M687.5 562.5L712.5 537.5L712.5 512.5L712.5 487.5M687.5 437.5L712.5 412.5M712.5 587.5L687.5 562.5L687.5 537.5L687.5 512.5L687.5 487.5L687.5 462.5L687.5 437.5L687.5 412.5L687.5 387.5L687.5 362.5L687.5 337.5L687.5 312.5" stroke="rgba(107, 76, 255, 1)" stroke-width="4.17"></path>
            <path d="M681.25 312.5 a6.25 6.25 0 1 0 12.5 0 a6.25 6.25 0 1 0 -12.5 0zM706.25 312.5 a6.25 6.25 0 1 0 12.5 0 a6.25 6.25 0 1 0 -12.5 0zM706.25 487.5 a6.25 6.25 0 1 0 12.5 0 a6.25 6.25 0 1 0 -12.5 0zM706.25 412.5 a6.25 6.25 0 1 0 12.5 0 a6.25 6.25 0 1 0 -12.5 0z" fill="rgba(107, 76, 255, 1)"></path>
            <path d="M737.5 537.5L762.5 512.5L762.5 487.5M737.5 437.5L762.5 412.5M737.5 462.5L762.5 437.5L787.5 412.5M737.5 587.5L737.5 562.5L737.5 537.5L737.5 512.5L737.5 487.5L737.5 462.5L737.5 437.5L737.5 412.5L737.5 387.5" stroke="rgba(107, 76, 255, 1)" stroke-width="4.17"></path>
            <path d="M731.25 387.5 a6.25 6.25 0 1 0 12.5 0 a6.25 6.25 0 1 0 -12.5 0zM756.25 487.5 a6.25 6.25 0 1 0 12.5 0 a6.25 6.25 0 1 0 -12.5 0zM756.25 412.5 a6.25 6.25 0 1 0 12.5 0 a6.25 6.25 0 1 0 -12.5 0zM781.25 412.5 a6.25 6.25 0 1 0 12.5 0 a6.25 6.25 0 1 0 -12.5 0z" fill="rgba(107, 76, 255, 1)"></path>
            <path d="M762.5 587.5L762.5 562.5" stroke="rgba(8, 4, 17, 1)" stroke-width="4.17"></path>
            <path d="M756.25 562.5 a6.25 6.25 0 1 0 12.5 0 a6.25 6.25 0 1 0 -12.5 0z" fill="rgba(8, 4, 17, 1)"></path>
            <path d="M662.5 287.5L687.5 262.5L687.5 237.5M637.5 237.5L662.5 212.5L662.5 187.5L637.5 162.5M662.5 262.5L662.5 237.5M662.5 587.5L662.5 562.5L662.5 537.5L662.5 512.5L662.5 487.5L662.5 462.5L662.5 437.5L662.5 412.5L662.5 387.5L662.5 362.5L662.5 337.5L662.5 312.5L662.5 287.5L662.5 262.5L637.5 237.5L637.5 212.5" stroke="rgba(107, 76, 255, 1)" stroke-width="4.17"></path>
            <path d="M631.25 212.5 a6.25 6.25 0 1 0 12.5 0 a6.25 6.25 0 1 0 -12.5 0zM681.25 237.5 a6.25 6.25 0 1 0 12.5 0 a6.25 6.25 0 1 0 -12.5 0zM631.25 162.5 a6.25 6.25 0 1 0 12.5 0 a6.25 6.25 0 1 0 -12.5 0zM656.25 237.5 a6.25 6.25 0 1 0 12.5 0 a6.25 6.25 0 1 0 -12.5 0z" fill="rgba(107, 76, 255, 1)"></path>
            <path d="M787.5 587.5L787.5 562.5" stroke="rgba(8, 4, 17, 1)" stroke-width="4.17"></path>
            <path d="M781.25 562.5 a6.25 6.25 0 1 0 12.5 0 a6.25 6.25 0 1 0 -12.5 0z" fill="rgba(8, 4, 17, 1)"></path>
            <path d="M612.5 212.5L587.5 187.5M637.5 587.5L637.5 562.5L637.5 537.5L637.5 512.5L637.5 487.5L637.5 462.5L637.5 437.5L637.5 412.5L637.5 387.5L637.5 362.5L637.5 337.5L637.5 312.5L637.5 287.5L637.5 262.5L612.5 237.5L612.5 212.5L612.5 187.5" stroke="rgba(107, 76, 255, 1)" stroke-width="4.17"></path>
            <path d="M606.25 187.5 a6.25 6.25 0 1 0 12.5 0 a6.25 6.25 0 1 0 -12.5 0zM581.25 187.5 a6.25 6.25 0 1 0 12.5 0 a6.25 6.25 0 1 0 -12.5 0z" fill="rgba(107, 76, 255, 1)"></path>
            <path d="M812.5 512.5L787.5 487.5M812.5 362.5L812.5 337.5L812.5 312.5M812.5 462.5L787.5 437.5M837.5 337.5L862.5 312.5L862.5 287.5L862.5 262.5L887.5 237.5M812.5 587.5L812.5 562.5L812.5 537.5L812.5 512.5L812.5 487.5L812.5 462.5L812.5 437.5L812.5 412.5L812.5 387.5L812.5 362.5L837.5 337.5L837.5 312.5L837.5 287.5L837.5 262.5L862.5 237.5L862.5 212.5" stroke="rgba(107, 76, 255, 1)" stroke-width="4.17"></path>
            <path d="M856.25 212.5 a6.25 6.25 0 1 0 12.5 0 a6.25 6.25 0 1 0 -12.5 0zM781.25 487.5 a6.25 6.25 0 1 0 12.5 0 a6.25 6.25 0 1 0 -12.5 0zM806.25 312.5 a6.25 6.25 0 1 0 12.5 0 a6.25 6.25 0 1 0 -12.5 0zM781.25 437.5 a6.25 6.25 0 1 0 12.5 0 a6.25 6.25 0 1 0 -12.5 0zM881.25 237.5 a6.25 6.25 0 1 0 12.5 0 a6.25 6.25 0 1 0 -12.5 0z" fill="rgba(107, 76, 255, 1)"></path>
            <path d="M612.5 437.5L587.5 412.5L562.5 387.5M612.5 387.5L587.5 362.5M612.5 487.5L587.5 462.5L587.5 437.5L562.5 412.5M612.5 587.5L612.5 562.5L612.5 537.5L612.5 512.5L612.5 487.5L612.5 462.5L612.5 437.5L612.5 412.5L612.5 387.5L612.5 362.5L612.5 337.5L612.5 312.5L612.5 287.5L612.5 262.5L587.5 237.5" stroke="rgba(8, 4, 17, 1)" stroke-width="4.17"></path>
            <path d="M581.25 237.5 a6.25 6.25 0 1 0 12.5 0 a6.25 6.25 0 1 0 -12.5 0zM556.25 387.5 a6.25 6.25 0 1 0 12.5 0 a6.25 6.25 0 1 0 -12.5 0zM581.25 362.5 a6.25 6.25 0 1 0 12.5 0 a6.25 6.25 0 1 0 -12.5 0zM556.25 412.5 a6.25 6.25 0 1 0 12.5 0 a6.25 6.25 0 1 0 -12.5 0z" fill="rgba(8, 4, 17, 1)"></path>
            <path d="M837.5 512.5L862.5 487.5L862.5 462.5M837.5 437.5L862.5 412.5M837.5 587.5L837.5 562.5L837.5 537.5L837.5 512.5L837.5 487.5L837.5 462.5L837.5 437.5L837.5 412.5L837.5 387.5L837.5 362.5" stroke="rgba(8, 4, 17, 1)" stroke-width="4.17"></path>
            <path d="M831.25 362.5 a6.25 6.25 0 1 0 12.5 0 a6.25 6.25 0 1 0 -12.5 0zM856.25 462.5 a6.25 6.25 0 1 0 12.5 0 a6.25 6.25 0 1 0 -12.5 0zM856.25 412.5 a6.25 6.25 0 1 0 12.5 0 a6.25 6.25 0 1 0 -12.5 0z" fill="rgba(8, 4, 17, 1)"></path>
            <path d="M562.5 537.5L587.5 512.5L587.5 487.5M537.5 362.5L562.5 337.5L562.5 312.5M537.5 212.5L537.5 187.5M537.5 237.5L562.5 212.5M587.5 587.5L587.5 562.5L562.5 537.5L562.5 512.5L562.5 487.5L562.5 462.5L537.5 437.5L537.5 412.5L537.5 387.5L537.5 362.5L537.5 337.5L537.5 312.5L537.5 287.5L537.5 262.5L537.5 237.5L537.5 212.5L512.5 187.5" stroke="rgba(8, 4, 17, 1)" stroke-width="4.17"></path>
            <path d="M506.25 187.5 a6.25 6.25 0 1 0 12.5 0 a6.25 6.25 0 1 0 -12.5 0zM581.25 487.5 a6.25 6.25 0 1 0 12.5 0 a6.25 6.25 0 1 0 -12.5 0zM556.25 312.5 a6.25 6.25 0 1 0 12.5 0 a6.25 6.25 0 1 0 -12.5 0zM531.25 187.5 a6.25 6.25 0 1 0 12.5 0 a6.25 6.25 0 1 0 -12.5 0zM556.25 212.5 a6.25 6.25 0 1 0 12.5 0 a6.25 6.25 0 1 0 -12.5 0z" fill="rgba(8, 4, 17, 1)"></path>
            <path d="M887.5 387.5L912.5 362.5M887.5 462.5L912.5 437.5L912.5 412.5L912.5 387.5M887.5 337.5L912.5 312.5L912.5 287.5L912.5 262.5L912.5 237.5M862.5 587.5L862.5 562.5L862.5 537.5L887.5 512.5L887.5 487.5L887.5 462.5L887.5 437.5L887.5 412.5L887.5 387.5L887.5 362.5L887.5 337.5L887.5 312.5" stroke="rgba(8, 4, 17, 1)" stroke-width="4.17"></path>
            <path d="M881.25 312.5 a6.25 6.25 0 1 0 12.5 0 a6.25 6.25 0 1 0 -12.5 0zM906.25 362.5 a6.25 6.25 0 1 0 12.5 0 a6.25 6.25 0 1 0 -12.5 0zM906.25 387.5 a6.25 6.25 0 1 0 12.5 0 a6.25 6.25 0 1 0 -12.5 0zM906.25 237.5 a6.25 6.25 0 1 0 12.5 0 a6.25 6.25 0 1 0 -12.5 0z" fill="rgba(8, 4, 17, 1)"></path>
            <path d="M937.5 362.5L962.5 337.5L962.5 312.5M937.5 287.5L962.5 262.5L962.5 237.5L962.5 212.5L962.5 187.5M912.5 487.5L912.5 462.5M887.5 587.5L887.5 562.5L887.5 537.5L912.5 512.5L912.5 487.5L937.5 462.5L937.5 437.5L937.5 412.5L937.5 387.5L937.5 362.5L937.5 337.5L937.5 312.5L937.5 287.5L937.5 262.5L937.5 237.5" stroke="rgba(8, 4, 17, 1)" stroke-width="4.17"></path>
            <path d="M931.25 237.5 a6.25 6.25 0 1 0 12.5 0 a6.25 6.25 0 1 0 -12.5 0zM956.25 312.5 a6.25 6.25 0 1 0 12.5 0 a6.25 6.25 0 1 0 -12.5 0zM956.25 187.5 a6.25 6.25 0 1 0 12.5 0 a6.25 6.25 0 1 0 -12.5 0zM906.25 462.5 a6.25 6.25 0 1 0 12.5 0 a6.25 6.25 0 1 0 -12.5 0z" fill="rgba(8, 4, 17, 1)"></path>
            <path d="M512.5 387.5L487.5 362.5L487.5 337.5L487.5 312.5M512.5 412.5L487.5 387.5M537.5 587.5L537.5 562.5L537.5 537.5L537.5 512.5L537.5 487.5L537.5 462.5L512.5 437.5L512.5 412.5L512.5 387.5L512.5 362.5L512.5 337.5L512.5 312.5L512.5 287.5" stroke="rgba(107, 76, 255, 1)" stroke-width="4.17"></path>
            <path d="M506.25 287.5 a6.25 6.25 0 1 0 12.5 0 a6.25 6.25 0 1 0 -12.5 0zM481.25 312.5 a6.25 6.25 0 1 0 12.5 0 a6.25 6.25 0 1 0 -12.5 0zM481.25 387.5 a6.25 6.25 0 1 0 12.5 0 a6.25 6.25 0 1 0 -12.5 0z" fill="rgba(107, 76, 255, 1)"></path>
            <path d="M937.5 512.5L937.5 487.5M962.5 412.5L987.5 387.5L987.5 362.5M962.5 437.5L987.5 412.5M912.5 587.5L912.5 562.5L912.5 537.5L937.5 512.5L962.5 487.5L962.5 462.5L962.5 437.5L962.5 412.5L962.5 387.5" stroke="rgba(8, 4, 17, 1)" stroke-width="4.17"></path>
            <path d="M956.25 387.5 a6.25 6.25 0 1 0 12.5 0 a6.25 6.25 0 1 0 -12.5 0zM931.25 487.5 a6.25 6.25 0 1 0 12.5 0 a6.25 6.25 0 1 0 -12.5 0zM981.25 362.5 a6.25 6.25 0 1 0 12.5 0 a6.25 6.25 0 1 0 -12.5 0zM981.25 412.5 a6.25 6.25 0 1 0 12.5 0 a6.25 6.25 0 1 0 -12.5 0z" fill="rgba(8, 4, 17, 1)"></path>
            <path d="M512.5 587.5L512.5 562.5L512.5 537.5L512.5 512.5L512.5 487.5L512.5 462.5L487.5 437.5" stroke="rgba(8, 4, 17, 1)" stroke-width="4.17"></path>
            <path d="M481.25 437.5 a6.25 6.25 0 1 0 12.5 0 a6.25 6.25 0 1 0 -12.5 0z" fill="rgba(8, 4, 17, 1)"></path>
            <path d="M937.5 587.5L937.5 562.5L937.5 537.5L962.5 512.5L987.5 487.5L987.5 462.5" stroke="rgba(107, 76, 255, 1)" stroke-width="4.17"></path>
            <path d="M981.25 462.5 a6.25 6.25 0 1 0 12.5 0 a6.25 6.25 0 1 0 -12.5 0z" fill="rgba(107, 76, 255, 1)"></path>
            <path d="M462.5 362.5L437.5 337.5L437.5 312.5L437.5 287.5L437.5 262.5M462.5 387.5L437.5 362.5M487.5 587.5L487.5 562.5L487.5 537.5L487.5 512.5L487.5 487.5L487.5 462.5L462.5 437.5L462.5 412.5L462.5 387.5L462.5 362.5L462.5 337.5L462.5 312.5" stroke="rgba(107, 76, 255, 1)" stroke-width="4.17"></path>
            <path d="M456.25 312.5 a6.25 6.25 0 1 0 12.5 0 a6.25 6.25 0 1 0 -12.5 0zM431.25 262.5 a6.25 6.25 0 1 0 12.5 0 a6.25 6.25 0 1 0 -12.5 0zM431.25 362.5 a6.25 6.25 0 1 0 12.5 0 a6.25 6.25 0 1 0 -12.5 0z" fill="rgba(107, 76, 255, 1)"></path>
            <path d="M412.5 362.5L387.5 337.5L387.5 312.5L387.5 287.5L387.5 262.5M437.5 412.5L437.5 387.5M437.5 437.5L412.5 412.5L387.5 387.5L387.5 362.5L362.5 337.5M462.5 587.5L462.5 562.5L462.5 537.5L462.5 512.5L462.5 487.5L462.5 462.5L437.5 437.5L437.5 412.5L412.5 387.5L412.5 362.5L412.5 337.5L412.5 312.5" stroke="rgba(8, 4, 17, 1)" stroke-width="4.17"></path>
            <path d="M406.25 312.5 a6.25 6.25 0 1 0 12.5 0 a6.25 6.25 0 1 0 -12.5 0zM381.25 262.5 a6.25 6.25 0 1 0 12.5 0 a6.25 6.25 0 1 0 -12.5 0zM431.25 387.5 a6.25 6.25 0 1 0 12.5 0 a6.25 6.25 0 1 0 -12.5 0zM356.25 337.5 a6.25 6.25 0 1 0 12.5 0 a6.25 6.25 0 1 0 -12.5 0z" fill="rgba(8, 4, 17, 1)"></path>
            <path d="M1012.5 362.5L1037.5 337.5L1037.5 312.5M1012.5 412.5L1037.5 387.5L1037.5 362.5L1062.5 337.5M1012.5 337.5L987.5 312.5L987.5 287.5M987.5 587.5L987.5 562.5L987.5 537.5L987.5 512.5L1012.5 487.5L1012.5 462.5L1012.5 437.5L1012.5 412.5L1012.5 387.5L1012.5 362.5L1012.5 337.5L1012.5 312.5L1012.5 287.5" stroke="rgba(8, 4, 17, 1)" stroke-width="4.17"></path>
            <path d="M1006.25 287.5 a6.25 6.25 0 1 0 12.5 0 a6.25 6.25 0 1 0 -12.5 0zM1031.25 312.5 a6.25 6.25 0 1 0 12.5 0 a6.25 6.25 0 1 0 -12.5 0zM1056.25 337.5 a6.25 6.25 0 1 0 12.5 0 a6.25 6.25 0 1 0 -12.5 0zM981.25 287.5 a6.25 6.25 0 1 0 12.5 0 a6.25 6.25 0 1 0 -12.5 0z" fill="rgba(8, 4, 17, 1)"></path>
            <path d="M437.5 587.5L437.5 562.5" stroke="rgba(8, 4, 17, 1)" stroke-width="4.17"></path>
            <path d="M431.25 562.5 a6.25 6.25 0 1 0 12.5 0 a6.25 6.25 0 1 0 -12.5 0z" fill="rgba(8, 4, 17, 1)"></path>
            <path d="M1037.5 537.5L1012.5 512.5M1012.5 587.5L1037.5 562.5L1037.5 537.5L1037.5 512.5L1037.5 487.5L1037.5 462.5" stroke="rgba(107, 76, 255, 1)" stroke-width="4.17"></path>
            <path d="M1031.25 462.5 a6.25 6.25 0 1 0 12.5 0 a6.25 6.25 0 1 0 -12.5 0zM1006.25 512.5 a6.25 6.25 0 1 0 12.5 0 a6.25 6.25 0 1 0 -12.5 0z" fill="rgba(107, 76, 255, 1)"></path>
            <path d="M412.5 587.5L412.5 562.5L412.5 537.5" stroke="rgba(107, 76, 255, 1)" stroke-width="4.17"></path>
            <path d="M406.25 537.5 a6.25 6.25 0 1 0 12.5 0 a6.25 6.25 0 1 0 -12.5 0z" fill="rgba(107, 76, 255, 1)"></path>
            <path d="M387.5 587.5L387.5 562.5L387.5 537.5" stroke="rgba(8, 4, 17, 1)" stroke-width="4.17"></path>
            <path d="M381.25 537.5 a6.25 6.25 0 1 0 12.5 0 a6.25 6.25 0 1 0 -12.5 0z" fill="rgba(8, 4, 17, 1)"></path>
            <path d="M1087.5 337.5L1112.5 312.5L1112.5 287.5L1112.5 262.5M1062.5 387.5L1062.5 362.5M1062.5 412.5L1087.5 387.5L1112.5 362.5L1112.5 337.5M1062.5 587.5L1062.5 562.5L1062.5 537.5L1062.5 512.5L1062.5 487.5L1062.5 462.5L1062.5 437.5L1062.5 412.5L1062.5 387.5L1087.5 362.5L1087.5 337.5L1087.5 312.5" stroke="rgba(8, 4, 17, 1)" stroke-width="4.17"></path>
            <path d="M1081.25 312.5 a6.25 6.25 0 1 0 12.5 0 a6.25 6.25 0 1 0 -12.5 0zM1106.25 262.5 a6.25 6.25 0 1 0 12.5 0 a6.25 6.25 0 1 0 -12.5 0zM1056.25 362.5 a6.25 6.25 0 1 0 12.5 0 a6.25 6.25 0 1 0 -12.5 0zM1106.25 337.5 a6.25 6.25 0 1 0 12.5 0 a6.25 6.25 0 1 0 -12.5 0z" fill="rgba(8, 4, 17, 1)"></path>
            <path d="M337.5 387.5L312.5 362.5L287.5 337.5L262.5 312.5L262.5 287.5M337.5 362.5L337.5 337.5L337.5 312.5M287.5 262.5L262.5 237.5L262.5 212.5L262.5 187.5M362.5 587.5L362.5 562.5L362.5 537.5L337.5 512.5L337.5 487.5L337.5 462.5L337.5 437.5L337.5 412.5L337.5 387.5L337.5 362.5L312.5 337.5L287.5 312.5L287.5 287.5L287.5 262.5L287.5 237.5" stroke="rgba(107, 76, 255, 1)" stroke-width="4.17"></path>
            <path d="M281.25 237.5 a6.25 6.25 0 1 0 12.5 0 a6.25 6.25 0 1 0 -12.5 0zM256.25 287.5 a6.25 6.25 0 1 0 12.5 0 a6.25 6.25 0 1 0 -12.5 0zM331.25 312.5 a6.25 6.25 0 1 0 12.5 0 a6.25 6.25 0 1 0 -12.5 0zM256.25 187.5 a6.25 6.25 0 1 0 12.5 0 a6.25 6.25 0 1 0 -12.5 0z" fill="rgba(107, 76, 255, 1)"></path>
        </g>
    </g>
    <defs>
        <mask id="SvgjsMask1318">
            <rect width="1440" height="560" fill="#ffffff"></rect>
        </mask>
        <mask id="SvgjsMask1319">
            <rect width="1440" height="560" fill="white"></rect>
            <path d="M684.37 312.5 a3.13 3.13 0 1 0 6.26 0 a3.13 3.13 0 1 0 -6.26 0zM709.37 312.5 a3.13 3.13 0 1 0 6.26 0 a3.13 3.13 0 1 0 -6.26 0zM709.37 487.5 a3.13 3.13 0 1 0 6.26 0 a3.13 3.13 0 1 0 -6.26 0zM709.37 412.5 a3.13 3.13 0 1 0 6.26 0 a3.13 3.13 0 1 0 -6.26 0z" fill="black"></path>
            <path d="M734.37 387.5 a3.13 3.13 0 1 0 6.26 0 a3.13 3.13 0 1 0 -6.26 0zM759.37 487.5 a3.13 3.13 0 1 0 6.26 0 a3.13 3.13 0 1 0 -6.26 0zM759.37 412.5 a3.13 3.13 0 1 0 6.26 0 a3.13 3.13 0 1 0 -6.26 0zM784.37 412.5 a3.13 3.13 0 1 0 6.26 0 a3.13 3.13 0 1 0 -6.26 0z" fill="black"></path>
            <path d="M759.37 562.5 a3.13 3.13 0 1 0 6.26 0 a3.13 3.13 0 1 0 -6.26 0z" fill="black"></path>
            <path d="M634.37 212.5 a3.13 3.13 0 1 0 6.26 0 a3.13 3.13 0 1 0 -6.26 0zM684.37 237.5 a3.13 3.13 0 1 0 6.26 0 a3.13 3.13 0 1 0 -6.26 0zM634.37 162.5 a3.13 3.13 0 1 0 6.26 0 a3.13 3.13 0 1 0 -6.26 0zM659.37 237.5 a3.13 3.13 0 1 0 6.26 0 a3.13 3.13 0 1 0 -6.26 0z" fill="black"></path>
            <path d="M784.37 562.5 a3.13 3.13 0 1 0 6.26 0 a3.13 3.13 0 1 0 -6.26 0z" fill="black"></path>
            <path d="M609.37 187.5 a3.13 3.13 0 1 0 6.26 0 a3.13 3.13 0 1 0 -6.26 0zM584.37 187.5 a3.13 3.13 0 1 0 6.26 0 a3.13 3.13 0 1 0 -6.26 0z" fill="black"></path>
            <path d="M859.37 212.5 a3.13 3.13 0 1 0 6.26 0 a3.13 3.13 0 1 0 -6.26 0zM784.37 487.5 a3.13 3.13 0 1 0 6.26 0 a3.13 3.13 0 1 0 -6.26 0zM809.37 312.5 a3.13 3.13 0 1 0 6.26 0 a3.13 3.13 0 1 0 -6.26 0zM784.37 437.5 a3.13 3.13 0 1 0 6.26 0 a3.13 3.13 0 1 0 -6.26 0zM884.37 237.5 a3.13 3.13 0 1 0 6.26 0 a3.13 3.13 0 1 0 -6.26 0z" fill="black"></path>
            <path d="M584.37 237.5 a3.13 3.13 0 1 0 6.26 0 a3.13 3.13 0 1 0 -6.26 0zM559.37 387.5 a3.13 3.13 0 1 0 6.26 0 a3.13 3.13 0 1 0 -6.26 0zM584.37 362.5 a3.13 3.13 0 1 0 6.26 0 a3.13 3.13 0 1 0 -6.26 0zM559.37 412.5 a3.13 3.13 0 1 0 6.26 0 a3.13 3.13 0 1 0 -6.26 0z" fill="black"></path>
            <path d="M834.37 362.5 a3.13 3.13 0 1 0 6.26 0 a3.13 3.13 0 1 0 -6.26 0zM859.37 462.5 a3.13 3.13 0 1 0 6.26 0 a3.13 3.13 0 1 0 -6.26 0zM859.37 412.5 a3.13 3.13 0 1 0 6.26 0 a3.13 3.13 0 1 0 -6.26 0z" fill="black"></path>
            <path d="M509.37 187.5 a3.13 3.13 0 1 0 6.26 0 a3.13 3.13 0 1 0 -6.26 0zM584.37 487.5 a3.13 3.13 0 1 0 6.26 0 a3.13 3.13 0 1 0 -6.26 0zM559.37 312.5 a3.13 3.13 0 1 0 6.26 0 a3.13 3.13 0 1 0 -6.26 0zM534.37 187.5 a3.13 3.13 0 1 0 6.26 0 a3.13 3.13 0 1 0 -6.26 0zM559.37 212.5 a3.13 3.13 0 1 0 6.26 0 a3.13 3.13 0 1 0 -6.26 0z" fill="black"></path>
            <path d="M884.37 312.5 a3.13 3.13 0 1 0 6.26 0 a3.13 3.13 0 1 0 -6.26 0zM909.37 362.5 a3.13 3.13 0 1 0 6.26 0 a3.13 3.13 0 1 0 -6.26 0zM909.37 387.5 a3.13 3.13 0 1 0 6.26 0 a3.13 3.13 0 1 0 -6.26 0zM909.37 237.5 a3.13 3.13 0 1 0 6.26 0 a3.13 3.13 0 1 0 -6.26 0z" fill="black"></path>
            <path d="M934.37 237.5 a3.13 3.13 0 1 0 6.26 0 a3.13 3.13 0 1 0 -6.26 0zM959.37 312.5 a3.13 3.13 0 1 0 6.26 0 a3.13 3.13 0 1 0 -6.26 0zM959.37 187.5 a3.13 3.13 0 1 0 6.26 0 a3.13 3.13 0 1 0 -6.26 0zM909.37 462.5 a3.13 3.13 0 1 0 6.26 0 a3.13 3.13 0 1 0 -6.26 0z" fill="black"></path>
            <path d="M509.37 287.5 a3.13 3.13 0 1 0 6.26 0 a3.13 3.13 0 1 0 -6.26 0zM484.37 312.5 a3.13 3.13 0 1 0 6.26 0 a3.13 3.13 0 1 0 -6.26 0zM484.37 387.5 a3.13 3.13 0 1 0 6.26 0 a3.13 3.13 0 1 0 -6.26 0z" fill="black"></path>
            <path d="M959.37 387.5 a3.13 3.13 0 1 0 6.26 0 a3.13 3.13 0 1 0 -6.26 0zM934.37 487.5 a3.13 3.13 0 1 0 6.26 0 a3.13 3.13 0 1 0 -6.26 0zM984.37 362.5 a3.13 3.13 0 1 0 6.26 0 a3.13 3.13 0 1 0 -6.26 0zM984.37 412.5 a3.13 3.13 0 1 0 6.26 0 a3.13 3.13 0 1 0 -6.26 0z" fill="black"></path>
            <path d="M484.37 437.5 a3.13 3.13 0 1 0 6.26 0 a3.13 3.13 0 1 0 -6.26 0z" fill="black"></path>
            <path d="M984.37 462.5 a3.13 3.13 0 1 0 6.26 0 a3.13 3.13 0 1 0 -6.26 0z" fill="black"></path>
            <path d="M459.37 312.5 a3.13 3.13 0 1 0 6.26 0 a3.13 3.13 0 1 0 -6.26 0zM434.37 262.5 a3.13 3.13 0 1 0 6.26 0 a3.13 3.13 0 1 0 -6.26 0zM434.37 362.5 a3.13 3.13 0 1 0 6.26 0 a3.13 3.13 0 1 0 -6.26 0z" fill="black"></path>
            <path d="M409.37 312.5 a3.13 3.13 0 1 0 6.26 0 a3.13 3.13 0 1 0 -6.26 0zM384.37 262.5 a3.13 3.13 0 1 0 6.26 0 a3.13 3.13 0 1 0 -6.26 0zM434.37 387.5 a3.13 3.13 0 1 0 6.26 0 a3.13 3.13 0 1 0 -6.26 0zM359.37 337.5 a3.13 3.13 0 1 0 6.26 0 a3.13 3.13 0 1 0 -6.26 0z" fill="black"></path>
            <path d="M1009.37 287.5 a3.13 3.13 0 1 0 6.26 0 a3.13 3.13 0 1 0 -6.26 0zM1034.37 312.5 a3.13 3.13 0 1 0 6.26 0 a3.13 3.13 0 1 0 -6.26 0zM1059.37 337.5 a3.13 3.13 0 1 0 6.26 0 a3.13 3.13 0 1 0 -6.26 0zM984.37 287.5 a3.13 3.13 0 1 0 6.26 0 a3.13 3.13 0 1 0 -6.26 0z" fill="black"></path>
            <path d="M434.37 562.5 a3.13 3.13 0 1 0 6.26 0 a3.13 3.13 0 1 0 -6.26 0z" fill="black"></path>
            <path d="M1034.37 462.5 a3.13 3.13 0 1 0 6.26 0 a3.13 3.13 0 1 0 -6.26 0zM1009.37 512.5 a3.13 3.13 0 1 0 6.26 0 a3.13 3.13 0 1 0 -6.26 0z" fill="black"></path>
            <path d="M409.37 537.5 a3.13 3.13 0 1 0 6.26 0 a3.13 3.13 0 1 0 -6.26 0z" fill="black"></path>
            <path d="M384.37 537.5 a3.13 3.13 0 1 0 6.26 0 a3.13 3.13 0 1 0 -6.26 0z" fill="black"></path>
            <path d="M1084.37 312.5 a3.13 3.13 0 1 0 6.26 0 a3.13 3.13 0 1 0 -6.26 0zM1109.37 262.5 a3.13 3.13 0 1 0 6.26 0 a3.13 3.13 0 1 0 -6.26 0zM1059.37 362.5 a3.13 3.13 0 1 0 6.26 0 a3.13 3.13 0 1 0 -6.26 0zM1109.37 337.5 a3.13 3.13 0 1 0 6.26 0 a3.13 3.13 0 1 0 -6.26 0z" fill="black"></path>
            <path d="M284.37 237.5 a3.13 3.13 0 1 0 6.26 0 a3.13 3.13 0 1 0 -6.26 0zM259.37 287.5 a3.13 3.13 0 1 0 6.26 0 a3.13 3.13 0 1 0 -6.26 0zM334.37 312.5 a3.13 3.13 0 1 0 6.26 0 a3.13 3.13 0 1 0 -6.26 0zM259.37 187.5 a3.13 3.13 0 1 0 6.26 0 a3.13 3.13 0 1 0 -6.26 0z" fill="black"></path>
        </mask>
    </defs>
</svg>