<svg xmlns="http://www.w3.org/2000/svg" viewBox="0 0 256 256"><defs><style>.cls-1{fill:#1d384d;}</style></defs><title>monitoring</title><g id="icons_without_caption" data-name="icons without caption"><g id="MONITORING"><path class="cls-1" d="M204.58,163.56H51.42a9.84,9.84,0,0,1-9.83-9.83V66.22a9.84,9.84,0,0,1,9.83-9.83H204.58a9.84,9.84,0,0,1,9.83,9.83v87.52A9.84,9.84,0,0,1,204.58,163.56ZM51.42,60.4a5.83,5.83,0,0,0-5.83,5.83v87.52a5.83,5.83,0,0,0,5.83,5.83H204.58a5.83,5.83,0,0,0,5.83-5.83V66.22a5.83,5.83,0,0,0-5.83-5.83Z"/><path class="cls-1" d="M143.77,199.6H112.23A9.83,9.83,0,0,1,102.79,187l7.95-27.49h34.52L153.21,187a9.83,9.83,0,0,1-9.44,12.55Zm-30-36-7.11,24.6a5.83,5.83,0,0,0,5.6,7.44h31.53a5.83,5.83,0,0,0,5.6-7.44l-7.11-24.6Z"/><rect class="cls-1" x="84.88" y="195.6" width="86.24" height="4"/><polygon class="cls-1" points="164.12 90.26 164.12 94.26 177.77 94.26 150.9 116.67 136.02 101.34 105.57 126.15 108.1 129.25 135.71 106.75 150.61 122.12 181.05 96.73 181.05 109.34 185.05 109.34 185.05 90.26 164.12 90.26"/><path class="cls-1" d="M94.84,114.75c0,4.94-3.47,8.41-9.35,8.88v5.86H82.25v-5.91a16.87,16.87,0,0,1-9.9-4.75l2.53-3a13.74,13.74,0,0,0,9.33,4c3.57,0,6.21-1.77,6.21-4.82,0-3.47-2.79-4.63-7.25-6-5.29-1.7-10.11-3.35-10.11-9.12,0-4.7,3.28-8.27,9.19-8.55V85.19h3.24v6.33A19.79,19.79,0,0,1,93.73,95L91.3,98a15,15,0,0,0-8.15-2.86c-3.38,0-5.74,1.58-5.74,4.42,0,3,2.93,4.13,7,5.46,6,1.89,10.46,3.47,10.46,9.68Z"/></g></g></svg>