<?xml version="1.0" encoding="iso-8859-1"?>
<!-- Generator: Adobe Illustrator 19.0.0, SVG Export Plug-In . SVG Version: 6.00 Build 0)  -->
<svg version="1.1" id="Layer_1" xmlns="http://www.w3.org/2000/svg" xmlns:xlink="http://www.w3.org/1999/xlink" x="0px" y="0px"
	 viewBox="0 0 511.999 511.999" style="enable-background:new 0 0 511.999 511.999;" xml:space="preserve">
<path style="fill:#F1F2F2;" d="M256.001,255.402v0.675L43.41,378.82l-0.066-0.046v-245.55l0.526-0.303L256.001,255.402z"/>
<path style="fill:#E6E7E8;" d="M256.001,256.077V501.55L43.41,378.82L256.001,256.077z"/>
<path style="fill:#F98410;" d="M468.654,133.224v245.55l-0.071,0.034L256.001,256.077v-0.675l212.132-122.48L468.654,133.224z"/>
<path style="fill:#F76E11;" d="M468.584,378.808L256.001,501.55V256.077L468.584,378.808z"/>
<path style="fill:#FFD41D;" d="M468.133,132.922l-212.132,122.48V10.448L468.133,132.922z"/>
<path style="fill:#FFFFFF;" d="M256.001,10.448v244.953L43.87,132.922L256.001,10.448z"/>
<path d="M473.902,124.189l-0.521-0.303c-0.004-0.002-0.008-0.004-0.014-0.006c-0.004-0.002-0.007-0.005-0.01-0.007L261.226,1.4
	c-3.233-1.866-7.216-1.866-10.449,0L38.646,123.873l-0.001,0.001l-0.509,0.293c-3.242,1.864-5.24,5.319-5.24,9.057v245.55
	c0,2.79,1.128,5.424,3.064,7.365c0.031,0.032,0.063,0.064,0.095,0.096c0.248,0.242,0.509,0.471,0.783,0.689
	c0.113,0.091,0.224,0.183,0.34,0.27c0.066,0.048,0.123,0.104,0.19,0.15l0.066,0.046c0.099,0.07,0.209,0.117,0.31,0.183
	c0.149,0.097,0.288,0.207,0.443,0.297l212.592,122.73c1.212,0.7,2.53,1.137,3.873,1.312c0.448,0.059,0.899,0.088,1.35,0.088
	c1.805,0,3.608-0.467,5.224-1.4l212.582-122.741c0.094-0.054,0.177-0.122,0.269-0.18c0.274-0.167,0.539-0.342,0.794-0.532
	c0.069-0.052,0.136-0.107,0.204-0.16c2.5-1.956,4.029-4.959,4.029-8.212V133.224C479.103,129.501,477.122,126.059,473.902,124.189z
	 M53.793,150.717l96.002,55.43l85.894,49.593l-123.794,71.475l-58.102,33.546V150.717z M458.205,150.72v210.032L276.314,255.739
	L458.205,150.72z M282.893,227.81l-16.441,9.493V28.546l180.785,104.376L282.893,227.81z M245.552,28.546v208.757l-16.441-9.493
	L64.767,132.922L245.552,28.546z M245.552,274.175v209.277L64.309,378.82L245.552,274.175z M432.403,387.634l-97.554-56.322
	c-4.998-2.885-11.387-1.173-14.273,3.824c-2.886,4.998-1.173,11.388,3.824,14.273l87.105,50.29l-145.056,83.753V274.174
	l181.237,104.635L432.403,387.634z"/>
<path d="M276.593,321.807l20.537,11.857c1.646,0.95,3.442,1.401,5.215,1.401c3.611,0,7.123-1.874,9.058-5.226
	c2.886-4.998,1.173-11.388-3.824-14.273l-20.537-11.858c-4.998-2.884-11.387-1.173-14.273,3.824
	C269.883,312.531,271.595,318.922,276.593,321.807z"/>
<g>
</g>
<g>
</g>
<g>
</g>
<g>
</g>
<g>
</g>
<g>
</g>
<g>
</g>
<g>
</g>
<g>
</g>
<g>
</g>
<g>
</g>
<g>
</g>
<g>
</g>
<g>
</g>
<g>
</g>
</svg>
