<svg id="ART" xmlns="http://www.w3.org/2000/svg" xmlns:xlink="http://www.w3.org/1999/xlink" viewBox="0 0 48 48"><defs><style>.cls-1{fill:url(#linear-gradient);}.cls-2{fill:url(#linear-gradient-2);}.cls-3{fill:url(#linear-gradient-3);}.cls-4{fill:url(#linear-gradient-4);}.cls-5{fill:url(#linear-gradient-5);}.cls-6{fill:url(#linear-gradient-6);}.cls-7{fill:url(#linear-gradient-7);}.cls-8{fill:url(#linear-gradient-8);}</style><linearGradient id="linear-gradient" x1="24" y1="32.62" x2="24" y2="-13.01" gradientUnits="userSpaceOnUse"><stop offset="0" stop-color="#273a9b"/><stop offset="0.56" stop-color="#202f65"/><stop offset="1" stop-color="#021e2f"/></linearGradient><linearGradient id="linear-gradient-2" x1="24" y1="78.49" x2="24" y2="-32.85" gradientUnits="userSpaceOnUse"><stop offset="0" stop-color="#f3c57a"/><stop offset="0.49" stop-color="#f39369"/><stop offset="1" stop-color="#e94867"/></linearGradient><linearGradient id="linear-gradient-3" x1="32.61" y1="48.22" x2="20.03" y2="14.63" xlink:href="#linear-gradient-2"/><linearGradient id="linear-gradient-4" x1="23.22" y1="28.33" x2="23.22" y2="-25.08" gradientUnits="userSpaceOnUse"><stop offset="0" stop-color="#fff"/><stop offset="0.52" stop-color="#cce2e6"/><stop offset="1" stop-color="#8fa1bb"/></linearGradient><linearGradient id="linear-gradient-5" x1="6" y1="44.81" x2="6" y2="22.5" gradientUnits="userSpaceOnUse"><stop offset="0" stop-color="#27e9de"/><stop offset="0.52" stop-color="#03a4ec"/><stop offset="1" stop-color="#2547a8"/></linearGradient><linearGradient id="linear-gradient-6" x1="18" y1="32.81" x2="18" y2="10.5" xlink:href="#linear-gradient-5"/><linearGradient id="linear-gradient-7" x1="30" y1="32.81" x2="30" y2="10.5" xlink:href="#linear-gradient-5"/><linearGradient id="linear-gradient-8" x1="42" y1="20.81" x2="42" y2="-1.5" xlink:href="#linear-gradient-5"/></defs><title>analytics, statistics, line, chart, graph</title><rect class="cls-1" x="6" y="6" width="36" height="36" rx="5.35" ry="5.35"/><path class="cls-2" d="M11.35,42H36.65A5.35,5.35,0,0,0,42,36.65V12.91a5.61,5.61,0,0,1-1.57-.85L30,22.51H18l-12,12v2.14A5.35,5.35,0,0,0,11.35,42Z"/><path class="cls-3" d="M42,12.91a11,11,0,0,1-1.07-.5L29.37,24h-12L6,35.36v1.29A5.29,5.29,0,0,0,6.58,39L17.89,27.71A2.49,2.49,0,0,1,19.65,27h9.93a2.49,2.49,0,0,0,1.76-.73L42,15.59Z"/><path class="cls-4" d="M6,36a1.5,1.5,0,0,1-1.06-2.56L17.38,21h12l10-10a1.5,1.5,0,0,1,2.12,2.12L30.61,24h-12L7.06,35.57A1.5,1.5,0,0,1,6,36Z"/><circle class="cls-5" cx="6" cy="34.5" r="3"/><circle class="cls-6" cx="18" cy="22.5" r="3"/><circle class="cls-7" cx="30" cy="22.5" r="3"/><circle class="cls-8" cx="42" cy="10.5" r="3"/></svg>