<svg id="ART" xmlns="http://www.w3.org/2000/svg" xmlns:xlink="http://www.w3.org/1999/xlink" viewBox="0 0 48 48"><defs><style>.cls-1{fill:url(#linear-gradient);}.cls-2{fill:url(#linear-gradient-2);}.cls-3{fill:url(#linear-gradient-3);}.cls-4{fill:url(#linear-gradient-5);}.cls-5{fill:url(#linear-gradient-10);}.cls-6{fill:url(#linear-gradient-11);}.cls-7{fill:url(#linear-gradient-12);}.cls-8{fill:url(#linear-gradient-13);}.cls-9{fill:url(#linear-gradient-14);}.cls-10{fill:url(#linear-gradient-15);}.cls-11{fill:url(#linear-gradient-16);}.cls-12{fill:url(#linear-gradient-17);}.cls-13{fill:url(#linear-gradient-18);}.cls-14{fill:url(#linear-gradient-19);}.cls-15{fill:url(#linear-gradient-20);}.cls-16{fill:url(#linear-gradient-21);}.cls-17{fill:url(#linear-gradient-22);}.cls-18{fill:url(#linear-gradient-23);}</style><linearGradient id="linear-gradient" x1="18" y1="61.67" x2="18" y2="-8.41" gradientUnits="userSpaceOnUse"><stop offset="0" stop-color="#27e9de"/><stop offset="0.52" stop-color="#03a4ec"/><stop offset="1" stop-color="#2547a8"/></linearGradient><linearGradient id="linear-gradient-2" x1="12" y1="61" x2="12" y2="-3.66" xlink:href="#linear-gradient"/><linearGradient id="linear-gradient-3" x1="22.48" y1="61" x2="22.48" y2="-3.66" xlink:href="#linear-gradient"/><linearGradient id="linear-gradient-5" y1="61" x2="18" y2="-3.66" xlink:href="#linear-gradient"/><linearGradient id="linear-gradient-10" x1="12" y1="18.33" x2="12" y2="-5.51" gradientUnits="userSpaceOnUse"><stop offset="0" stop-color="#fff"/><stop offset="0.52" stop-color="#cce2e6"/><stop offset="1" stop-color="#8fa1bb"/></linearGradient><linearGradient id="linear-gradient-11" x1="22.48" y1="11.9" x2="22.48" y2="5.94" xlink:href="#linear-gradient-10"/><linearGradient id="linear-gradient-12" x1="22.48" y1="16.4" x2="22.48" y2="10.44" xlink:href="#linear-gradient-10"/><linearGradient id="linear-gradient-13" x1="18" y1="20.9" x2="18" y2="14.94" xlink:href="#linear-gradient-10"/><linearGradient id="linear-gradient-14" x1="18" y1="25.4" x2="18" y2="19.44" xlink:href="#linear-gradient-10"/><linearGradient id="linear-gradient-15" x1="18" y1="29.9" x2="18" y2="23.94" xlink:href="#linear-gradient-10"/><linearGradient id="linear-gradient-16" x1="18" y1="34.4" x2="18" y2="28.44" xlink:href="#linear-gradient-10"/><linearGradient id="linear-gradient-17" x1="18" y1="38.9" x2="18" y2="32.94" xlink:href="#linear-gradient-10"/><linearGradient id="linear-gradient-18" x1="40.45" y1="23.59" x2="50.45" y2="23.59" gradientUnits="userSpaceOnUse"><stop offset="0" stop-color="#273a9b"/><stop offset="0.56" stop-color="#202f65"/><stop offset="1" stop-color="#021e2f"/></linearGradient><linearGradient id="linear-gradient-19" x1="27.38" y1="36.25" x2="27.38" y2="9.41" xlink:href="#linear-gradient-18"/><linearGradient id="linear-gradient-20" x1="57.17" y1="23.59" x2="15.83" y2="23.59" gradientUnits="userSpaceOnUse"><stop offset="0" stop-color="#f3c57a"/><stop offset="0.49" stop-color="#f39369"/><stop offset="1" stop-color="#e94867"/></linearGradient><linearGradient id="linear-gradient-21" x1="7" y1="23.59" x2="40.51" y2="23.59" xlink:href="#linear-gradient-20"/><linearGradient id="linear-gradient-22" x1="40.9" y1="32.61" x2="40.9" y2="5.97" xlink:href="#linear-gradient-18"/><linearGradient id="linear-gradient-23" x1="51.43" y1="23.59" x2="36.24" y2="23.59" xlink:href="#linear-gradient-18"/></defs><title>press, release, announcement, ad, advertisement</title><rect class="cls-1" x="3" y="3" width="30" height="42" rx="3.15" ry="3.15"/><rect class="cls-2" x="9" y="10.5" width="6" height="6" rx="1.71" ry="1.71"/><path class="cls-3" d="M26.25,12H18.72a.75.75,0,0,1-.75-.75h0a.75.75,0,0,1,.75-.75h7.53a.75.75,0,0,1,.75.75h0A.75.75,0,0,1,26.25,12Z"/><path class="cls-3" d="M26.25,16.5H18.72a.75.75,0,0,1-.75-.75h0a.75.75,0,0,1,.75-.75h7.53a.75.75,0,0,1,.75.75h0A.75.75,0,0,1,26.25,16.5Z"/><path class="cls-4" d="M26.25,21H9.75A.75.75,0,0,1,9,20.25H9a.75.75,0,0,1,.75-.75h16.5a.75.75,0,0,1,.75.75h0A.75.75,0,0,1,26.25,21Z"/><path class="cls-4" d="M26.25,25.5H9.75A.75.75,0,0,1,9,24.75H9A.75.75,0,0,1,9.75,24h16.5a.75.75,0,0,1,.75.75h0A.75.75,0,0,1,26.25,25.5Z"/><path class="cls-4" d="M26.25,30H9.75A.75.75,0,0,1,9,29.25H9a.75.75,0,0,1,.75-.75h16.5a.75.75,0,0,1,.75.75h0A.75.75,0,0,1,26.25,30Z"/><path class="cls-4" d="M26.25,34.5H9.75A.75.75,0,0,1,9,33.75H9A.75.75,0,0,1,9.75,33h16.5a.75.75,0,0,1,.75.75h0A.75.75,0,0,1,26.25,34.5Z"/><path class="cls-4" d="M26.25,39H9.75A.75.75,0,0,1,9,38.25H9a.75.75,0,0,1,.75-.75h16.5a.75.75,0,0,1,.75.75h0A.75.75,0,0,1,26.25,39Z"/><rect class="cls-5" x="9" y="9.75" width="6" height="6" rx="1.71" ry="1.71"/><path class="cls-6" d="M26.25,11.25H18.72A.75.75,0,0,1,18,10.5h0a.75.75,0,0,1,.75-.75h7.53a.75.75,0,0,1,.75.75h0A.75.75,0,0,1,26.25,11.25Z"/><path class="cls-7" d="M26.25,15.75H18.72A.75.75,0,0,1,18,15h0a.75.75,0,0,1,.75-.75h7.53A.75.75,0,0,1,27,15h0A.75.75,0,0,1,26.25,15.75Z"/><path class="cls-8" d="M26.25,20.25H9.75A.75.75,0,0,1,9,19.5H9a.75.75,0,0,1,.75-.75h16.5a.75.75,0,0,1,.75.75h0A.75.75,0,0,1,26.25,20.25Z"/><path class="cls-9" d="M26.25,24.75H9.75A.75.75,0,0,1,9,24H9a.75.75,0,0,1,.75-.75h16.5A.75.75,0,0,1,27,24h0A.75.75,0,0,1,26.25,24.75Z"/><path class="cls-10" d="M26.25,29.25H9.75A.75.75,0,0,1,9,28.5H9a.75.75,0,0,1,.75-.75h16.5a.75.75,0,0,1,.75.75h0A.75.75,0,0,1,26.25,29.25Z"/><path class="cls-11" d="M26.25,33.75H9.75A.75.75,0,0,1,9,33H9a.75.75,0,0,1,.75-.75h16.5A.75.75,0,0,1,27,33h0A.75.75,0,0,1,26.25,33.75Z"/><path class="cls-12" d="M26.25,38.25H9.75A.75.75,0,0,1,9,37.5H9a.75.75,0,0,1,.75-.75h16.5a.75.75,0,0,1,.75.75h0A.75.75,0,0,1,26.25,38.25Z"/><circle class="cls-13" cx="40.92" cy="23.59" r="4.08"/><path class="cls-14" d="M24.63,26.85l1.52,6.82a.63.63,0,0,0,.62.49h.7a.42.42,0,0,0,.42-.42v-2.9a1.7,1.7,0,0,1,.55-1.25L30.12,28"/><path class="cls-15" d="M24.57,19.53H23.33a1.14,1.14,0,0,0-1.14,1.14v5.85a1.14,1.14,0,0,0,1.14,1.14h1.24a5.4,5.4,0,0,1,1.71.28l13.81,4.6V14.65l-13.81,4.6A5.4,5.4,0,0,1,24.57,19.53Z"/><path class="cls-16" d="M33,17l-6.72,2.24a5.4,5.4,0,0,1-1.71.28H23.33a1.14,1.14,0,0,0-1.14,1.14v5.85a1.14,1.14,0,0,0,1.14,1.14h1.24a5.4,5.4,0,0,1,1.71.28L33,30.18Z"/><rect class="cls-17" x="40.09" y="13.83" width="1.63" height="19.52" rx="0.75" ry="0.75"/><path class="cls-18" d="M41.71,27.6a4.06,4.06,0,0,0,1.63-.72V20.31a4.06,4.06,0,0,0-1.63-.72Z"/></svg>