<svg id="ART" xmlns="http://www.w3.org/2000/svg" xmlns:xlink="http://www.w3.org/1999/xlink" viewBox="0 0 48 48"><defs><style>.cls-1{fill:url(#linear-gradient);}.cls-2{fill:url(#linear-gradient-2);}.cls-3{fill:url(#linear-gradient-3);}.cls-4{fill:url(#linear-gradient-4);}.cls-5{fill:url(#linear-gradient-5);}.cls-6{fill:url(#linear-gradient-6);}.cls-7{fill:url(#linear-gradient-7);}.cls-8{fill:url(#linear-gradient-8);}.cls-9{fill:url(#linear-gradient-9);}.cls-10{fill:url(#linear-gradient-10);}.cls-11{fill:url(#linear-gradient-11);}.cls-12{fill:url(#linear-gradient-12);}.cls-13{fill:url(#linear-gradient-13);}</style><linearGradient id="linear-gradient" x1="22.59" y1="43.81" x2="22.59" y2="-16.41" gradientUnits="userSpaceOnUse"><stop offset="0" stop-color="#f3c57a"/><stop offset="0.49" stop-color="#f39369"/><stop offset="1" stop-color="#e94867"/></linearGradient><linearGradient id="linear-gradient-2" x1="5.87" y1="21.97" x2="67.38" y2="21.97" gradientUnits="userSpaceOnUse"><stop offset="0" stop-color="#27e9de"/><stop offset="0.52" stop-color="#03a4ec"/><stop offset="1" stop-color="#2547a8"/></linearGradient><linearGradient id="linear-gradient-3" x1="37.3" y1="37.39" x2="37.3" y2="21.55" xlink:href="#linear-gradient-2"/><linearGradient id="linear-gradient-4" x1="45.21" y1="12.37" x2="0.46" y2="19.54" gradientUnits="userSpaceOnUse"><stop offset="0" stop-color="#273a9b"/><stop offset="0.56" stop-color="#202f65"/><stop offset="1" stop-color="#021e2f"/></linearGradient><linearGradient id="linear-gradient-5" x1="22.87" y1="25.1" x2="45.88" y2="2.09" xlink:href="#linear-gradient-4"/><linearGradient id="linear-gradient-6" x1="22.59" y1="37.98" x2="22.59" y2="5.35" gradientUnits="userSpaceOnUse"><stop offset="0" stop-color="#fff"/><stop offset="0.52" stop-color="#cce2e6"/><stop offset="1" stop-color="#8fa1bb"/></linearGradient><linearGradient id="linear-gradient-7" x1="42" y1="42.24" x2="42" y2="35.72" xlink:href="#linear-gradient-6"/><linearGradient id="linear-gradient-8" x1="42" y1="46.74" x2="42" y2="40.22" xlink:href="#linear-gradient-6"/><linearGradient id="linear-gradient-9" x1="33.75" y1="46.74" x2="33.75" y2="40.22" xlink:href="#linear-gradient-6"/><linearGradient id="linear-gradient-10" x1="36.75" y1="46.74" x2="36.75" y2="40.22" xlink:href="#linear-gradient-6"/><linearGradient id="linear-gradient-11" x1="22.59" y1="21" x2="22.59" y2="2.39" xlink:href="#linear-gradient-4"/><linearGradient id="linear-gradient-12" x1="22.59" y1="33.17" x2="22.59" y2="17.57" xlink:href="#linear-gradient-4"/><linearGradient id="linear-gradient-13" x1="22.59" y1="30.25" x2="22.59" y2="14.82" xlink:href="#linear-gradient-6"/></defs><title>data, settings, options, preferences, chart, graph</title><path class="cls-1" d="M22.59,45A19.59,19.59,0,1,1,42.19,25.38,19.62,19.62,0,0,1,22.59,45Zm0-30.19A10.59,10.59,0,1,0,33.19,25.38,10.61,10.61,0,0,0,22.59,14.79Z"/><path class="cls-2" d="M33.19,25.38a10.54,10.54,0,0,1-2.58,6.91l6.81,5.87A19.57,19.57,0,0,0,22.59,5.79v9A10.61,10.61,0,0,1,33.19,25.38Z"/><path class="cls-3" d="M33.19,25.38A10.53,10.53,0,0,1,33.06,27h9.06c0-.53.07-1.06.07-1.59a19.6,19.6,0,0,0-.41-4H32.4A10.53,10.53,0,0,1,33.19,25.38Z"/><path class="cls-4" d="M24.13,3a1.44,1.44,0,0,0-1.54,1.43V14.79A10.61,10.61,0,0,1,33.19,25.38H43.52a1.44,1.44,0,0,0,1.43-1.54A22.44,22.44,0,0,0,24.13,3Z"/><path class="cls-5" d="M22.59,14.79A10.61,10.61,0,0,1,33.19,25.38h9A19.62,19.62,0,0,0,22.59,5.79v9Z"/><circle class="cls-6" cx="22.59" cy="25.38" r="3.75"/><path class="cls-7" d="M44.25,40.48h-4.5a.75.75,0,0,1-.75-.75h0a.75.75,0,0,1,.75-.75h4.5a.75.75,0,0,1,.75.75h0A.75.75,0,0,1,44.25,40.48Z"/><path class="cls-8" d="M44.25,45h-4.5a.75.75,0,0,1-.75-.75h0a.75.75,0,0,1,.75-.75h4.5a.75.75,0,0,1,.75.75h0A.75.75,0,0,1,44.25,45Z"/><path class="cls-9" d="M33.75,45h0a.75.75,0,0,1-.75-.75h0a.75.75,0,0,1,.75-.75h0a.75.75,0,0,1,.75.75h0A.75.75,0,0,1,33.75,45Z"/><path class="cls-10" d="M36.75,45h0a.75.75,0,0,1-.75-.75h0a.75.75,0,0,1,.75-.75h0a.75.75,0,0,1,.75.75h0A.75.75,0,0,1,36.75,45Z"/><path class="cls-11" d="M28.51,25.38h0a2,2,0,0,1,.58-1.4l1.3-1.32a1,1,0,0,0,.15-1.14l-.62-1.07A1,1,0,0,0,28.86,20L27,20.47a2,2,0,0,1-1.52-.21h0a2,2,0,0,1-.88-1.16l-.5-1.82a1,1,0,0,0-.92-.7H22a1,1,0,0,0-.92.7l-.5,1.82a2,2,0,0,1-.88,1.16h0a2,2,0,0,1-1.52.21L16.33,20a1,1,0,0,0-1.06.44l-.62,1.07a1,1,0,0,0,.15,1.14L16.17,24a1.87,1.87,0,0,1,.51,1.34h0a1.87,1.87,0,0,1-.51,1.34L14.8,28.11a1,1,0,0,0-.15,1.14l.62,1.07a1,1,0,0,0,1.06.44l1.9-.5a1.84,1.84,0,0,1,1.42.23l0,0a1.83,1.83,0,0,1,.85,1.09l.52,1.89a1,1,0,0,0,.92.7h1.24a1,1,0,0,0,.92-.7l.5-1.83a1.92,1.92,0,0,1,.87-1.14l.1-.06A1.78,1.78,0,0,1,27,30.27l1.9.5a1,1,0,0,0,1.06-.44l.62-1.07a1,1,0,0,0-.15-1.14l-1.3-1.32a2,2,0,0,1-.58-1.4Z"/><path class="cls-12" d="M20.45,31.43a1.65,1.65,0,0,1,.09.18l.52,1.89a1,1,0,0,0,.92.7h1.24a1,1,0,0,0,.92-.7l.5-1.83a1.88,1.88,0,0,1,.11-.22V25.38H20.45Z"/><circle class="cls-13" cx="22.59" cy="25.38" r="2.16"/></svg>