<svg id="ART" xmlns="http://www.w3.org/2000/svg" xmlns:xlink="http://www.w3.org/1999/xlink" viewBox="0 0 48 48"><defs><style>.cls-1{fill:url(#linear-gradient);}.cls-2{fill:url(#linear-gradient-2);}.cls-3{fill:url(#linear-gradient-3);}.cls-4{fill:url(#linear-gradient-4);}.cls-5{fill:url(#linear-gradient-5);}.cls-6{fill:url(#linear-gradient-6);}.cls-7{fill:url(#linear-gradient-7);}.cls-8{fill:url(#linear-gradient-8);}.cls-9{fill:url(#linear-gradient-9);}.cls-10{fill:url(#linear-gradient-10);}.cls-11{fill:url(#linear-gradient-11);}.cls-12{fill:url(#linear-gradient-12);}.cls-13{fill:url(#linear-gradient-13);}.cls-14{fill:url(#linear-gradient-14);}</style><linearGradient id="linear-gradient" x1="24.01" y1="43.49" x2="24.01" y2="-0.44" gradientUnits="userSpaceOnUse"><stop offset="0" stop-color="#f3c57a"/><stop offset="0.49" stop-color="#f39369"/><stop offset="1" stop-color="#e94867"/></linearGradient><linearGradient id="linear-gradient-2" x1="32.41" y1="44.19" x2="32.41" y2="5.22" xlink:href="#linear-gradient"/><linearGradient id="linear-gradient-3" x1="8.98" y1="34.87" x2="8.98" y2="16.38" gradientUnits="userSpaceOnUse"><stop offset="0" stop-color="#273a9b"/><stop offset="0.56" stop-color="#202f65"/><stop offset="1" stop-color="#021e2f"/></linearGradient><linearGradient id="linear-gradient-4" x1="21.69" y1="46.1" x2="21.69" y2="-11.4" xlink:href="#linear-gradient-3"/><linearGradient id="linear-gradient-5" x1="160.34" y1="-586.42" x2="160.34" y2="-604.91" gradientTransform="translate(199.36 -573.29) rotate(180)" xlink:href="#linear-gradient-3"/><linearGradient id="linear-gradient-6" x1="173.05" y1="-575.19" x2="173.05" y2="-632.69" gradientTransform="translate(199.36 -573.29) rotate(180)" xlink:href="#linear-gradient-3"/><linearGradient id="linear-gradient-7" x1="20.59" y1="56" x2="20.59" y2="13.05" xlink:href="#linear-gradient"/><linearGradient id="linear-gradient-8" x1="27.41" y1="56" x2="27.41" y2="13.05" xlink:href="#linear-gradient"/><linearGradient id="linear-gradient-9" x1="27.41" y1="56" x2="27.41" y2="13.05" xlink:href="#linear-gradient"/><linearGradient id="linear-gradient-10" x1="20.59" y1="56" x2="20.59" y2="13.05" xlink:href="#linear-gradient"/><linearGradient id="linear-gradient-11" x1="20.59" y1="15.57" x2="20.59" y2="1.33" gradientUnits="userSpaceOnUse"><stop offset="0" stop-color="#fff"/><stop offset="0.52" stop-color="#cce2e6"/><stop offset="1" stop-color="#8fa1bb"/></linearGradient><linearGradient id="linear-gradient-12" x1="27.41" y1="15.57" x2="27.41" y2="1.33" xlink:href="#linear-gradient-11"/><linearGradient id="linear-gradient-13" x1="27.41" y1="15.57" x2="27.41" y2="1.33" xlink:href="#linear-gradient-11"/><linearGradient id="linear-gradient-14" x1="20.59" y1="15.57" x2="20.59" y2="1.33" xlink:href="#linear-gradient-11"/></defs><title>code, coding, programming, update, arrows</title><circle class="cls-1" cx="24.01" cy="23.99" r="16.81"/><path class="cls-2" d="M24,7.19A16.81,16.81,0,0,1,24,40.8"/><path class="cls-3" d="M4.43,21v8.19a.5.5,0,0,0,.84.38l8-7A.87.87,0,0,0,12.66,21Z"/><path class="cls-4" d="M37.35,15h0a3,3,0,0,0,2.23-5.06A21,21,0,0,0,3.44,19.76a20.76,20.76,0,0,0,.29,9.66.8.8,0,0,0,1.3.39l4.14-3.7a14.94,14.94,0,0,1,26-12.1A3,3,0,0,0,37.35,15Z"/><path class="cls-5" d="M43.57,27V18.81a.5.5,0,0,0-.84-.38l-8,7A.87.87,0,0,0,35.34,27Z"/><path class="cls-6" d="M10.65,33h0a3,3,0,0,0-2.23,5.06,21,21,0,0,0,36.14-9.82,20.76,20.76,0,0,0-.29-9.66.8.8,0,0,0-1.3-.39l-4.14,3.7a14.94,14.94,0,0,1-26,12.1A3,3,0,0,0,10.65,33Z"/><path class="cls-7" d="M18.75,17.31l-.58.58a.47.47,0,0,0-.14.33V23a.47.47,0,0,0,.14.33l.58.58a.47.47,0,0,0,.33.14h3a.47.47,0,0,0,.33-.14l.58-.58a.47.47,0,0,0,.14-.33V18.22a.47.47,0,0,0-.14-.33l-.58-.58a.47.47,0,0,0-.33-.14h-3A.47.47,0,0,0,18.75,17.31Zm2.23,5H20.2a.47.47,0,0,1-.47-.47V19.35a.47.47,0,0,1,.47-.47H21a.47.47,0,0,1,.47.47v2.48A.47.47,0,0,1,21,22.29Z"/><path class="cls-8" d="M25.57,25.84l-.58.58a.47.47,0,0,0-.14.33v4.73a.47.47,0,0,0,.14.33l.58.58a.47.47,0,0,0,.33.14h3a.47.47,0,0,0,.33-.14l.58-.58a.47.47,0,0,0,.14-.33V26.75a.47.47,0,0,0-.14-.33l-.58-.58a.47.47,0,0,0-.33-.14h-3A.47.47,0,0,0,25.57,25.84Zm2.23,5H27a.47.47,0,0,1-.47-.47V27.88a.47.47,0,0,1,.47-.47h.77a.47.47,0,0,1,.47.47v2.48A.47.47,0,0,1,27.8,30.82Z"/><path class="cls-9" d="M28.26,21.83v-3.6a.47.47,0,0,0-.14-.33l-.58-.58a.47.47,0,0,0-.33-.14h-1.9a.47.47,0,0,0-.47.47v.77a.47.47,0,0,0,.47.47h.77a.47.47,0,0,1,.47.47v2.94H25.32a.47.47,0,0,0-.47.47v.77a.47.47,0,0,0,.47.47H29.5a.47.47,0,0,0,.47-.47v-.77a.47.47,0,0,0-.47-.47h-.77A.47.47,0,0,1,28.26,21.83Z"/><path class="cls-10" d="M21.44,30.36v-3.6a.47.47,0,0,0-.14-.33l-.58-.58a.47.47,0,0,0-.33-.14H18.5a.47.47,0,0,0-.47.47v.77a.47.47,0,0,0,.47.47h.77a.47.47,0,0,1,.47.47v2.94H18.5a.47.47,0,0,0-.47.47v.77a.47.47,0,0,0,.47.47h4.18a.47.47,0,0,0,.47-.47v-.77a.47.47,0,0,0-.47-.47h-.77A.47.47,0,0,1,21.44,30.36Z"/><path class="cls-11" d="M18.75,16.46l-.58.58a.47.47,0,0,0-.14.33V22.1a.47.47,0,0,0,.14.33l.58.58a.47.47,0,0,0,.33.14h3a.47.47,0,0,0,.33-.14l.58-.58a.47.47,0,0,0,.14-.33V17.37A.47.47,0,0,0,23,17l-.58-.58a.47.47,0,0,0-.33-.14h-3A.47.47,0,0,0,18.75,16.46Zm2.23,5H20.2a.47.47,0,0,1-.47-.47V18.5A.47.47,0,0,1,20.2,18H21a.47.47,0,0,1,.47.47V21A.47.47,0,0,1,21,21.44Z"/><path class="cls-12" d="M25.57,25l-.58.58a.47.47,0,0,0-.14.33v4.73A.47.47,0,0,0,25,31l.58.58a.47.47,0,0,0,.33.14h3a.47.47,0,0,0,.33-.14l.58-.58a.47.47,0,0,0,.14-.33V25.9a.47.47,0,0,0-.14-.33L29.25,25a.47.47,0,0,0-.33-.14h-3A.47.47,0,0,0,25.57,25Zm2.23,5H27a.47.47,0,0,1-.47-.47V27a.47.47,0,0,1,.47-.47h.77a.47.47,0,0,1,.47.47V29.5A.47.47,0,0,1,27.8,30Z"/><path class="cls-13" d="M28.26,21v-3.6a.47.47,0,0,0-.14-.33l-.58-.58a.47.47,0,0,0-.33-.14h-1.9a.47.47,0,0,0-.47.47v.77a.47.47,0,0,0,.47.47h.77a.47.47,0,0,1,.47.47v2.94H25.32a.47.47,0,0,0-.47.47v.77a.47.47,0,0,0,.47.47H29.5a.47.47,0,0,0,.47-.47v-.77a.47.47,0,0,0-.47-.47h-.77A.47.47,0,0,1,28.26,21Z"/><path class="cls-14" d="M21.44,29.5V25.9a.47.47,0,0,0-.14-.33L20.73,25a.47.47,0,0,0-.33-.14H18.5a.47.47,0,0,0-.47.47v.77a.47.47,0,0,0,.47.47h.77a.47.47,0,0,1,.47.47V30H18.5a.47.47,0,0,0-.47.47v.77a.47.47,0,0,0,.47.47h4.18a.47.47,0,0,0,.47-.47v-.77a.47.47,0,0,0-.47-.47h-.77A.47.47,0,0,1,21.44,29.5Z"/></svg>